<svg width="64" height="20" viewBox="0 0 64 20" fill="none" xmlns="http://www.w3.org/2000/svg">
    <path
        d="M12.954 17.18a2.66 2.66 0 01-2.76 2.66 2.657 2.657 0 01-2.565-2.698 2.648 2.648 0 012.7-2.624 2.65 2.65 0 012.625 2.663zM10.302 7.379c1.419-.02 2.654 1.16 2.652 2.664a2.654 2.654 0 01-2.698 2.66 2.65 2.65 0 01-2.625-2.686 2.644 2.644 0 012.67-2.638zM5.324 17.173c.024 1.443-1.186 2.7-2.716 2.667A2.666 2.666 0 010 17.155a2.661 2.661 0 012.697-2.64 2.647 2.647 0 012.627 2.658zM10.277 5.56a2.654 2.654 0 01-2.648-2.72A2.644 2.644 0 0110.3.236 2.647 2.647 0 0112.954 2.9a2.655 2.655 0 01-2.677 2.659zM5.324 10.037a2.646 2.646 0 01-2.621 2.664A2.663 2.663 0 010 10a2.67 2.67 0 012.71-2.623c1.42.023 2.632 1.201 2.614 2.66zM2.658 5.56A2.659 2.659 0 01.002 2.939 2.652 2.652 0 012.663.236a2.656 2.656 0 012.661 2.746c-.042 1.381-1.18 2.584-2.666 2.578zM17.93 7.38a2.64 2.64 0 012.652 2.664 2.65 2.65 0 01-2.665 2.66 2.657 2.657 0 01-2.659-2.666c0-1.516 1.249-2.688 2.672-2.658zM17.924 5.56a2.655 2.655 0 01-2.666-2.656 2.648 2.648 0 012.663-2.67 2.638 2.638 0 012.66 2.66 2.646 2.646 0 01-2.657 2.666zM15.258 17.175a2.654 2.654 0 012.707-2.659 2.645 2.645 0 012.616 2.662 2.65 2.65 0 01-2.757 2.66 2.653 2.653 0 01-2.566-2.663zM28.4.17h-5.728v11.709h2.999V3.167h2.726a2.876 2.876 0 012.833 2.867v5.844h2.998V6.034C34.228 2.8 31.614.17 28.4.17zM45.196.17h-5.728v11.709h2.998V3.167h2.722a2.877 2.877 0 012.837 2.867v5.844h2.997V6.034c0-3.233-2.61-5.864-5.826-5.864zM38.31.208h-2.998v11.671h2.999V.208zM63.636 5.825c0-3.233-2.319-5.825-5.83-5.825-3.535 0-6.147 2.344-6.147 6.009V6.1c0 3.598 2.523 5.942 6.215 5.942 1.732 0 3.376-.528 4.882-2.097l-1.957-1.888c-.788.752-1.596 1.117-2.77 1.117-1.779 0-2.947-.889-3.016-2.255h8.577c.045-.526.046-1.094.046-1.094zM55.06 4.71c.09-1.069 1.282-1.91 2.746-1.91 1.351 0 2.455.864 2.455 1.91H55.06zM23.442 17.721c-.563 0-1.017.458-1.017 1.022a1.019 1.019 0 102.037 0c0-.562-.457-1.022-1.02-1.022zM27.89 14.915c.562 0 .985.247 1.332.78l.14.213 1.59-.944-.165-.233c-.723-1.051-1.673-1.562-2.897-1.562-1.327 0-2.158.58-2.624 1.066a3.443 3.443 0 00-.94 2.35c0 .87.345 1.727.94 2.35.844.88 1.892 1.065 2.624 1.065 1.18 0 2.293-.602 2.904-1.568l.147-.231-1.582-.94-.138.217c-.329.517-.778.78-1.331.78-.953 0-1.67-.721-1.67-1.676 0-.95.717-1.667 1.67-1.667z"></path>
    <path
        d="M34.52 13.168c-1.327 0-2.16.579-2.623 1.065a3.418 3.418 0 000 4.701c.842.88 1.892 1.065 2.624 1.065 1.326 0 2.16-.578 2.623-1.065.595-.623.94-1.48.94-2.35a3.44 3.44 0 00-.94-2.35c-.842-.878-1.892-1.066-2.623-1.066zm0 5.09c-.952 0-1.673-.72-1.673-1.674 0-.951.72-1.67 1.674-1.67.952 0 1.67.719 1.67 1.67 0 .954-.718 1.675-1.67 1.675zM49.178 17.956a1.02 1.02 0 100 2.038 1.02 1.02 0 000-2.038zM55.017 13.686c-.434-.33-1.015-.518-1.658-.518-2.05 0-3.426 1.768-3.426 3.416 0 .852.317 1.702.881 2.332.622.697 1.505 1.082 2.485 1.082.641 0 1.252-.2 1.72-.544v.386h1.817v-6.51h-1.818v.356h-.001zm-1.56 4.573c-.902 0-1.636-.752-1.636-1.675 0-.922.734-1.67 1.637-1.67.87 0 1.61.763 1.61 1.67 0 .907-.74 1.675-1.61 1.675zM61.61 13.332v3.612c0 .705-.51 1.24-1.179 1.24-.671 0-1.18-.531-1.18-1.24v-3.612h-1.815v3.722c0 .858.328 1.627.918 2.17.554.498 1.29.776 2.076.776.789 0 1.525-.277 2.074-.777.596-.541.922-1.31.922-2.169v-3.722H61.61zM47.096 13.877c-.448-.455-1.135-.71-1.842-.71-.655 0-1.438.334-1.754.806-.294-.529-1.014-.805-1.712-.805-.554 0-1.14.27-1.464.524v-.36h-1.82v6.51h1.82V15.84c.002-.537.542-.851.973-.851.539 0 .97.335.97 1.028v3.824h1.817v-3.824c0-.742.415-1.028.961-1.028.432 0 .963.342.963.857v3.995h1.818v-4.007c0-.794-.254-1.468-.73-1.957z"></path>
</svg>